<svg xmlns="http://www.w3.org/2000/svg" viewBox="0 0 64 64" role="img" aria-label="Mower Takeover favicon">
  <defs>
    <linearGradient id="grass" x1="0" x2="1" y1="0" y2="1">
      <stop offset="0%" stop-color="#65a30d" />
      <stop offset="100%" stop-color="#166534" />
    </linearGradient>
    <linearGradient id="body" x1="0" x2="1" y1="0" y2="1">
      <stop offset="0%" stop-color="#f472b6" />
      <stop offset="100%" stop-color="#db2777" />
    </linearGradient>
  </defs>
  <rect width="64" height="64" rx="14" fill="url(#grass)" />
  <g opacity="0.2" fill="#bbf7d0">
    <rect x="8" y="8" width="16" height="16" rx="4" />
    <rect x="40" y="8" width="16" height="16" rx="4" />
    <rect x="24" y="24" width="16" height="16" rx="4" />
    <rect x="8" y="40" width="16" height="16" rx="4" />
    <rect x="40" y="40" width="16" height="16" rx="4" />
  </g>
  <g transform="translate(32 32) rotate(-18)">
    <path d="M-12 18v7h24v-7" fill="none" stroke="#475569" stroke-linecap="round" stroke-linejoin="round" stroke-width="3.2" />
    <rect x="-18" y="-11" width="5" height="9" rx="1" fill="#111827" />
    <rect x="13" y="-11" width="5" height="9" rx="1" fill="#111827" />
    <rect x="-18" y="2" width="5" height="9" rx="1" fill="#111827" />
    <rect x="13" y="2" width="5" height="9" rx="1" fill="#111827" />
    <rect x="-15" y="-13" width="30" height="26" rx="5" fill="url(#body)" />
    <circle cx="0" cy="0" r="9" fill="#1f2937" />
    <circle cx="0" cy="0" r="4" fill="#94a3b8" />
    <path d="M0 8v12" fill="none" stroke="#fde047" stroke-linecap="round" stroke-width="3.2" />
  </g>
</svg>
