<svg id="b85fab00-fe4d-4cf4-9b50-bc3d96ef740f" data-name="Layer 1" xmlns="http://www.w3.org/2000/svg" width="513.5" height="90.8" viewBox="0 0 513.5 90.8" data-fc-idx="0"><path d="M494.5,2c-11.9,0-20.3,3.7-25,11.1V2.1H441.3V30.4a40.19,40.19,0,0,0-10.6-17.9C422.3,4.3,411,.1,397.3,0H397c-13.5,0-24.7,4.1-33.2,12.1a44.14,44.14,0,0,0-4.6,5.1l5.3-15.1H337.1L321.3,51.9,304,1.5H278.8L261.5,52.4,245.6,2.7l-.2-.5H214.9l5.5,15.3a60.16,60.16,0,0,0-4.2-4.6C207.3,4.5,196,.2,182.4.1c-13.6.1-25,4.3-33.9,12.7S135,32.2,135,45.5a26.2,26.2,0,0,0,.1,2.8L118.3,1.6H92.6L74.9,54.8,56.9,1.6H30.4L0,88.7H27.4L43.3,38.9,60.6,89.3H85.8l17.3-50.9L119,88.1l.2.5h30.5l-5.5-15.2a46.87,46.87,0,0,0,4.3,4.7c8.9,8.4,20.3,12.7,33.9,12.7s25-4.4,33.8-12.8,13.4-19.4,13.4-32.6a19.27,19.27,0,0,0-.1-2.4l16.8,46.3H272l17.7-53.2,18,53.2h26.5l17-48.6c-.1,1.4-.2,2.8-.2,4.2,0,13.6,4.4,24.8,13.1,33.2S384.5,90.8,399,90.8A63.15,63.15,0,0,0,418,88a38,38,0,0,0,13.6-7.4c4.8-4.5,8.1-8.9,9.8-13.2V88.7h28.2V46.2c-.1-5.8,1.5-10.1,4.5-12.7s8.2-4,15.4-4h24V2ZM196.3,60.5a19.09,19.09,0,0,1-27.6,0c-3.6-3.9-5.4-9-5.4-15s1.8-11.1,5.3-15a18.2,18.2,0,0,1,13.9-5.9,18,18,0,0,1,13.8,5.9,22.07,22.07,0,0,1,5.3,15.1C201.5,51.5,199.8,56.6,196.3,60.5ZM379.5,31.9c2.7-7.6,8.5-11.3,17.7-11.3s15,3.7,17.6,11.3a6.37,6.37,0,0,1,.2.7H379.3a6.37,6.37,0,0,1,.2-.7ZM415.1,62l-.2.3c-3.5,4.2-8.5,6.3-14.7,6.3s-11.3-1.7-15-5.1A20.31,20.31,0,0,1,379,51.8h62.4V62Z" fill="#fff" style="fill: rgb(0, 0, 0) !important;"/></svg>